HIERARCHY
ROOT Hips
{
	OFFSET 4.959312 106.228157 -0.573475
	CHANNELS 6 Xposition Yposition Zposition Xrotation Yrotation Zrotation
	JOINT Chest
	{
		OFFSET 0.388287 13.636505 0.221825
		CHANNELS 3 Xrotation Yrotation Zrotation
		JOINT Chest2
		{
			OFFSET -1.460793 21.235420 2.447352
			CHANNELS 3 Xrotation Yrotation Zrotation
			JOINT Chest3
			{
				OFFSET -0.608601 14.893127 -0.802664
				CHANNELS 3 Xrotation Yrotation Zrotation
				JOINT Neck
				{
					OFFSET 0.677444 17.253326 0.692765
					CHANNELS 3 Xrotation Yrotation Zrotation
					JOINT Head
					{
						OFFSET -0.596929 10.313324 1.762555
						CHANNELS 3 Xrotation Yrotation Zrotation
						End Site
						{
							OFFSET -0.587723 10.325806 1.691123
						}
					}
				}
				JOINT LeftCollar
				{
					OFFSET 4.877805 12.960281 3.168969
					CHANNELS 3 Xrotation Yrotation Zrotation
					JOINT LeftUpArm
					{
						OFFSET 14.711531 -5.678497 -7.734663
						CHANNELS 3 Xrotation Yrotation Zrotation
						JOINT LeftLowArm
						{
							OFFSET 11.728270 -31.614136 -1.649800
							CHANNELS 3 Xrotation Yrotation Zrotation
							JOINT LeftHand
							{
								OFFSET 11.155125 -24.028870 14.111110
								CHANNELS 3 Xrotation Yrotation Zrotation
								End Site
								{
									OFFSET 2.438019 -5.251656 3.084053
								}
							}
						}
					}
				}
				JOINT RightCollar
				{
					OFFSET -3.519431 13.270935 3.647540
					CHANNELS 3 Xrotation Yrotation Zrotation
					JOINT RightUpArm
					{
						OFFSET -16.529888 -0.592575 -5.908308
						CHANNELS 3 Xrotation Yrotation Zrotation
						JOINT RightLowArm
						{
							OFFSET -32.033710 -2.226852 10.421955
							CHANNELS 3 Xrotation Yrotation Zrotation
							JOINT RightHand
							{
								OFFSET -26.295815 -1.596573 14.385266
								CHANNELS 3 Xrotation Yrotation Zrotation
								End Site
								{
									OFFSET -5.747208 -0.348953 3.144054
								}
							}
						}
					}
				}
			}
		}
	}
	JOINT LeftUpLeg
	{
		OFFSET 10.014166 -0.281487 -0.237452
		CHANNELS 3 Xrotation Yrotation Zrotation
		JOINT LeftLowLeg
		{
			OFFSET 0.838034 -46.702873 -7.882161
			CHANNELS 3 Xrotation Yrotation Zrotation
			JOINT LeftFoot
			{
				OFFSET -1.401588 -39.789879 -20.380600
				CHANNELS 3 Xrotation Yrotation Zrotation
				JOINT LeftToe
				{
					OFFSET -2.957606 -19.398344 13.210458
					CHANNELS 3 Xrotation Yrotation Zrotation
					End Site
					{
						OFFSET -0.712576 -6.752302 22.659603
					}
				}
			}
		}
	}
	JOINT RightUpLeg
	{
		OFFSET -10.014175 0.281288 0.237449
		CHANNELS 3 Xrotation Yrotation Zrotation
		JOINT RightLowLeg
		{
			OFFSET -1.206153 -44.789093 15.378345
			CHANNELS 3 Xrotation Yrotation Zrotation
			JOINT RightFoot
			{
				OFFSET 0.387726 -43.631554 -9.834440
				CHANNELS 3 Xrotation Yrotation Zrotation
				JOINT RightToe
				{
					OFFSET -2.733888 -17.488874 15.691453
					CHANNELS 3 Xrotation Yrotation Zrotation
					End Site
					{
						OFFSET -5.794279 -3.481616 22.668499
					}
				}
			}
		}
	}
}
MOTION
Frames: 8
Frame Time: 0.033333
2.763495 105.696449 -1.111724 5.543672 -3.849438 0.246725 -5.170092 0.162040 -2.169918 -1.312872 -0.349209 2.504295 3.553950 3.014474 0.747259 -5.237197 4.675763 -1.256461 -0.000000 0.000000 -0.000000 3.874246 2.765608 -4.058872 -5.960161 -17.198217 -11.208932 16.543055 -9.351745 -0.109642 0.000003 0.000000 0.000001 6.619000 -4.536634 22.548394 18.915932 8.728667 50.200210 12.914765 10.445596 -6.650875 -0.000001 -0.000000 0.000000 -7.924257 -1.249237 2.344516 -4.755456 4.934036 0.906841 -3.280552 2.223847 4.265388 -0.000000 0.000001 0.000000 14.408281 -0.307827 -0.955564 -8.846114 -4.704106 -2.103798 -6.942813 11.308285 2.353346 -0.000001 -0.000001 0.000000 
2.766235 105.688339 -1.109651 6.100991 -4.053453 0.145030 -5.718790 0.167752 -2.080456 -1.277741 -0.366410 2.489923 3.686161 2.938272 0.788677 -5.018422 4.660767 -1.387740 -0.000000 0.000001 -0.000000 3.828051 3.017141 -4.230738 -5.910651 -17.132799 -11.189913 16.320537 -9.418403 0.213588 0.000007 -0.000002 0.000004 6.695522 -3.786927 22.595222 18.788418 8.811022 50.058152 12.817986 10.382992 -6.983526 -0.000000 0.000002 0.000002 -8.626366 -1.239413 2.407162 -4.497215 4.954946 0.983172 -3.157248 2.449430 4.444125 -0.000002 0.000001 0.000000 14.403213 -0.318286 -0.869774 -9.136623 -4.865677 -2.069518 -6.876066 11.771125 2.426564 -0.000000 -0.000001 -0.000000 
2.775727 105.673439 -1.104691 5.914700 -4.221945 0.124014 -5.231792 0.155012 -2.124820 -1.571572 -0.348447 2.440990 3.806096 3.173757 0.891178 -5.179876 4.560135 -1.329589 -0.000001 0.000001 -0.000000 3.919926 2.470841 -4.069037 -6.063266 -17.188154 -11.312236 16.192458 -9.469201 0.428079 0.000005 0.000000 0.000006 6.683460 -3.841065 22.537860 18.799718 8.712274 50.025532 12.934638 10.136738 -6.807195 -0.000002 0.000003 -0.000000 -8.423257 -1.198045 2.357039 -4.242471 4.911242 0.956438 -3.654163 2.681059 4.667853 -0.000002 0.000000 -0.000001 14.881454 -0.368056 -0.849695 -9.308400 -4.922757 -2.200233 -6.833508 12.199642 2.517109 -0.000000 -0.000001 -0.000001 
2.790190 105.662025 -1.100611 5.576027 -3.997142 0.083426 -4.664516 0.137849 -2.103404 -2.232919 -0.417626 2.532151 4.274945 3.033896 0.820038 -5.344282 4.516036 -1.217590 -0.000000 0.000000 -0.000000 3.857883 2.406397 -4.068531 -6.307253 -17.246675 -11.351821 16.115186 -9.356254 0.353109 0.000003 0.000003 0.000001 6.592239 -4.167016 22.596945 18.787045 8.477889 49.961024 12.820829 10.471646 -6.695419 0.000001 -0.000000 0.000002 -8.277417 -1.202223 2.340938 -3.966675 4.782965 0.925535 -3.841984 2.828296 4.761961 -0.000002 0.000001 -0.000002 15.040218 -0.372335 -0.851090 -9.311931 -4.789624 -2.129590 -6.743452 11.612683 2.383116 0.000000 0.000000 0.000001 
2.807687 105.651894 -1.096987 5.580116 -4.016644 0.163730 -4.581648 0.169681 -2.238396 -1.966300 -0.418874 2.501169 3.862878 2.866124 0.853379 -4.746185 4.488827 -1.338654 -0.000000 -0.000001 0.000000 3.714663 2.563291 -4.277169 -6.033309 -16.833353 -11.126168 16.119405 -9.161950 0.140815 0.000007 -0.000002 0.000004 6.512361 -3.946900 22.743036 19.049956 7.504495 50.081833 12.700856 10.684771 -6.386231 -0.000000 0.000001 -0.000001 -8.212841 -1.177676 2.195831 -3.754000 4.760266 0.891145 -4.147462 2.796642 4.765093 -0.000000 0.000001 -0.000001 14.361513 -0.371325 -0.950213 -8.033455 -4.625138 -2.154700 -7.133899 11.625206 2.405324 -0.000002 0.000000 -0.000001 
2.824669 105.646111 -1.090071 5.592687 -4.009448 0.271865 -4.985781 0.206691 -2.396336 -1.466718 -0.355758 2.447284 3.566434 2.712534 0.923000 -4.793639 4.565380 -1.305496 0.000000 0.000000 -0.000000 3.711014 2.503032 -4.264838 -5.906272 -16.804840 -11.026030 15.683281 -9.248312 0.236159 0.000001 0.000006 0.000001 6.497276 -3.731412 22.578471 19.215219 7.379580 50.377450 12.597837 10.559254 -6.478084 -0.000001 0.000001 -0.000000 -8.297873 -1.224163 2.170007 -3.951186 4.865313 0.694549 -4.340765 2.787394 4.823988 -0.000004 0.000001 -0.000001 14.192492 -0.386848 -1.038718 -7.793085 -4.632017 -2.268058 -7.006657 11.669277 2.417906 -0.000001 0.000001 -0.000001 
2.844802 105.637650 -1.082804 5.327368 -3.833423 0.197466 -4.782497 0.182828 -2.297965 -0.704502 -0.350549 2.444490 2.733539 2.831706 0.877558 -4.862954 4.366834 -1.150559 0.000000 0.000001 -0.000000 3.804913 2.022727 -4.211399 -5.963295 -16.737302 -11.022135 15.345019 -9.178522 0.243759 0.000003 0.000002 0.000001 6.381206 -4.419093 22.471508 19.396354 7.101941 50.504891 12.567802 10.919411 -6.200572 0.000002 0.000001 0.000001 -8.073430 -1.214061 2.226897 -3.851214 4.733538 0.617978 -4.729240 2.575777 4.722078 -0.000002 0.000001 -0.000001 14.768911 -0.431906 -1.016016 -8.071400 -4.647930 -2.194488 -6.871448 11.534423 2.290591 -0.000000 0.000001 0.000000 
2.863712 105.627151 -1.075607 5.627046 -4.100276 0.239048 -4.991118 0.196188 -2.366781 -0.681552 -0.302850 2.383024 2.837214 2.772303 0.994823 -4.855205 4.601340 -1.296030 -0.000001 0.000000 0.000000 3.718935 2.657945 -4.290762 -5.991663 -16.885812 -10.926877 15.200591 -9.390172 0.205879 0.000005 0.000003 0.000003 6.481047 -3.947898 22.595881 19.146567 7.477694 50.260196 12.550178 10.879037 -6.431860 -0.000002 -0.000000 -0.000001 -8.299480 -1.218645 2.227055 -4.004005 4.904630 0.546177 -4.493714 2.746030 4.844801 -0.000002 0.000001 -0.000001 14.664066 -0.440420 -1.080086 -8.178409 -4.706624 -2.244605 -7.150432 11.998744 2.531324 -0.000000 -0.000000 -0.000001 
